<?xml version="1.0" encoding="utf-8"?>
<!-- Generator: Adobe Illustrator 16.0.0, SVG Export Plug-In . SVG Version: 6.00 Build 0)  -->
<!DOCTYPE svg PUBLIC "-//W3C//DTD SVG 1.1//EN" "http://www.w3.org/Graphics/SVG/1.1/DTD/svg11.dtd">
<svg version="1.1" id="レイヤー_1" xmlns="http://www.w3.org/2000/svg" xmlns:xlink="http://www.w3.org/1999/xlink" x="0px"
	 y="0px" width="91.048px" height="60px" viewBox="1.194 0.787 91.048 60" enable-background="new 1.194 0.787 91.048 60"
	 xml:space="preserve">
<g id="レイヤー_1_1_">
	<path fill="#FFFFFF" d="M59.071,14.014c-0.661-0.558-1.538-0.835-2.63-0.835c-3.836,0-8.43,3.005-13.784,9.014
		c2.545,0.218,4.758,0.328,6.639,0.328l1.803-0.049c0.447-0.831,0.672-1.541,0.672-2.131c0-0.557-0.535-0.863-1.518-0.917
		l-0.387-0.016v-0.577h4.265c-0.241,1.258-0.754,2.255-1.541,3.5c2.25-0.393,3.895-0.964,4.933-1.708
		c1.693-1.19,2.541-2.662,2.541-4.411C60.063,15.305,59.732,14.571,59.071,14.014z"/>
	<path fill="#FFFFFF" d="M42.477,23.52l-0.478-0.033c0.545,2.251,0.734,5.207,0.734,8.867v0.573c1.678-1.333,2.95-2.876,4.387-4.63
		c1.437-1.754,2.58-3.303,3.345-4.646c-1.071,0.088-2.115,0.131-3.175,0.131C46.229,23.782,44.64,23.695,42.477,23.52z"/>
	<path fill="#FFFFFF" d="M1.194,0.787v45.734h91.048V0.787H1.194z M58.99,20.365c-1.864,1.524-4.243,2.565-7.138,3.122
		c-1.082,1.606-2.675,3.595-4.778,5.966c-2.104,2.371-4.095,4.42-5.974,6.146l0.016-1.557c0-3.103-0.213-6.14-0.639-9.112
		l-0.049-0.328l-0.541,0.656c-0.262,0.306-0.749,0.88-1.459,1.721c-1.158,1.367-1.972,2.344-2.442,2.934l-4.065,5.146l-0.311,0.36
		c0-3.19-0.175-6.862-0.524-11.014c-0.142-1.748-0.285-2.849-0.427-3.302c-0.142-0.453-0.41-0.68-0.803-0.68
		c-0.252,0-0.65,0.148-1.197,0.443l-0.294-0.541c0.153-0.098,0.24-0.153,0.262-0.164l1.721-0.967
		c0.35-0.196,0.885-0.524,1.606-0.983l0.377-0.229c0.644,3.432,0.967,8.178,0.967,14.243c0.502-0.579,1.453-1.742,2.852-3.491
		c0.961-1.223,2.289-2.802,3.982-4.736l0.148-0.18l-0.066-0.328c-2.939,0-4.485,1.224-4.638,3.671
		c-0.285-0.24-0.426-0.541-0.426-0.901c0-0.83,0.507-1.682,1.524-2.556c1.016-0.874,2.087-1.382,3.212-1.524
		c-0.929-2.852-2.489-5.083-4.679-6.695c-2.191-1.611-4.767-2.418-7.728-2.418c-3.409,0-6.19,0.992-8.342,2.975
		c-2.153,1.983-3.229,4.542-3.229,7.679c0,2.929,0.956,5.367,2.869,7.318c1.912,1.95,4.299,2.925,7.162,2.925
		c0.426,0,0.939-0.049,1.541-0.148l0.098,0.313c-0.983,0.339-2.174,0.507-3.573,0.507c-2.808,0-5.127-0.931-6.957-2.794
		c-1.831-1.863-2.745-4.225-2.745-7.089c0-3.66,1.352-6.678,4.056-9.055c2.705-2.376,6.144-3.564,10.317-3.564
		c3.42,0,6.253,0.857,8.499,2.573c2.245,1.716,3.794,4.207,4.646,7.474c3.332-3.649,6.236-6.277,8.711-7.883s4.86-2.409,7.154-2.409
		c1.201,0,2.185,0.325,2.95,0.975c0.765,0.65,1.147,1.483,1.147,2.499C61.783,17.171,60.852,18.84,58.99,20.365z M70.424,20.979
		c0,1.027-0.617,3.06-1.971,6.097l-1.183,2.753c-0.645,1.476-0.963,2.377-0.984,2.705c-0.011,0.34,0.183,0.498,0.564,0.476
		c0.219-0.011,0.583-0.125,1.086-0.344l0.214,0.475c-1.716,0.819-3.085,1.405-4.113,1.753c0.055-1.027,0.222-1.975,0.5-2.843
		c0.279-0.868,0.883-2.308,1.811-4.319c1.181-2.578,1.781-4.086,1.803-4.523c0.021-0.338-0.12-0.508-0.426-0.508
		c-0.142,0-0.327,0.038-0.557,0.114l-0.688,0.246c-0.044,0.011-0.148,0.049-0.312,0.115l-0.164-0.525l0.344-0.114
		c1.213-0.448,2.387-0.951,3.644-1.508l0.431-0.23V20.979z M71.914,18.127c-0.225,0.23-0.479,0.344-0.762,0.344
		c-0.514,0-0.77-0.251-0.77-0.754c0-0.284,0.111-0.541,0.336-0.77c0.224-0.23,0.483-0.344,0.778-0.344
		c0.503,0,0.754,0.252,0.754,0.754C72.25,17.642,72.138,17.899,71.914,18.127z M82.13,21.766h-2.311l-0.132,0.229
		c-0.208,0.438-0.77,1.692-1.688,3.812c-0.373,0.863-0.897,2.042-1.573,3.561c-0.798,1.77-1.197,2.884-1.197,3.354
		c0,0.47,0.24,0.702,0.721,0.702c0.579,0,1.372-0.34,2.377-1.018l0.262,0.426c-0.656,0.503-1.405,0.929-2.246,1.278
		c-0.842,0.35-1.536,0.523-2.082,0.523c-0.819,0-1.229-0.322-1.229-0.967c0-0.459,0.458-1.748,1.376-3.867l1.705-3.885
		c0.951-2.196,1.502-3.435,1.656-3.819l0.165-0.328h-2.147l0.229-0.42h0.212c0.939,0,1.57-0.233,1.894-0.528
		c0.322-0.295,0.762-1.167,1.32-2.533c0.164,0.01,0.272-0.006,0.327-0.006c0.524,0,1.043-0.076,1.557-0.207
		c-0.121,0.317-0.334,0.831-0.639,1.552l-0.492,1.262l-0.164,0.46h2.311L82.13,21.766z"/>
	<g>
		<path fill="#FFFFFF" d="M38.719,51.358v9.273h-1.093v-9.273H38.719z"/>
		<path fill="#FFFFFF" d="M42.18,54.205v1.167c0.68-0.872,1.43-1.309,2.249-1.309c0.578,0,1.028,0.183,1.352,0.547
			c0.291,0.324,0.437,0.754,0.437,1.291v4.731h-1.044V56.27c0-0.877-0.361-1.315-1.082-1.315c-0.652,0-1.276,0.426-1.875,1.278v4.4
			h-1.021v-6.428H42.18z"/>
		<path fill="#FFFFFF" d="M53.322,55.968l-1.008,0.265c-0.184-0.918-0.662-1.376-1.433-1.376c-0.582,0-1.024,0.25-1.327,0.749
			c-0.275,0.443-0.412,1.045-0.412,1.808c0,0.876,0.176,1.543,0.529,1.998c0.303,0.389,0.706,0.583,1.21,0.583
			c0.82,0,1.322-0.471,1.506-1.413l0.971,0.301c-0.36,1.271-1.191,1.905-2.49,1.905c-0.914,0-1.62-0.336-2.12-1.008
			c-0.434-0.589-0.651-1.37-0.651-2.341c0-1.109,0.287-1.973,0.861-2.587c0.496-0.533,1.132-0.799,1.911-0.799
			c0.664,0,1.213,0.184,1.647,0.553C52.902,54.931,53.171,55.386,53.322,55.968z"/>
		<path fill="#FFFFFF" d="M56.192,59.262v1.37h-1.37v-1.37H56.192z"/>
	</g>
</g>
<g id="レイヤー_2" display="none">
	<text transform="matrix(1 0 0 1 57.353 72.2559)" display="inline" font-family="'Vivaldii'" font-size="48" letter-spacing="8">W</text>
	<text transform="matrix(1 0 0 1 132.9766 72.2559)" display="inline" font-family="'Vivaldii'" font-size="48" letter-spacing="3">it</text>
	<text transform="matrix(1 0 0 1 89.1426 139.9961)" display="inline" font-family="'YuGothic-Medium'" font-size="24">Inc.</text>
</g>
</svg>
